<svg width="464" height="79" viewBox="0 0 464 79" fill="none" xmlns="http://www.w3.org/2000/svg">
<path d="M30.88 0.72998V4.10999H5.58997V19.5299H24.63L0 43.73V0.72998H30.88Z" fill="black"/>
<path d="M41.3901 14.5599C42.2601 11.9799 43.6101 9.61996 45.4701 7.45996C47.3201 5.30996 49.6801 3.51999 52.5401 2.10999C55.4001 0.699985 58.8201 0 62.8101 0C66.8001 0 70.3301 0.720015 73.2901 2.14001C76.2501 3.57001 78.7001 5.36993 80.6301 7.54993C82.5601 9.71993 83.9901 12.09 84.9201 14.65C85.8501 17.21 86.3101 19.61 86.3101 21.87C86.3101 23.36 86.1001 24.93 85.6801 26.58C85.2601 28.23 84.6301 29.8699 83.8101 31.4999C82.9801 33.1299 81.9301 34.68 80.6401 36.15C79.3501 37.62 77.8301 38.92 76.0801 40.05C74.3301 41.18 72.3501 42.07 70.1601 42.74C67.9701 43.4 65.5201 43.74 62.8201 43.74C58.8301 43.74 55.4101 43.02 52.5501 41.6C49.6901 40.17 47.3401 38.3699 45.4801 36.1899C43.6301 34.0199 42.2701 31.65 41.4001 29.09C40.5301 26.53 40.1001 24.13 40.1001 21.87C40.1001 19.61 40.5301 17.1399 41.4001 14.5599H41.3901ZM47.3101 29.6299C48.1801 31.9899 49.3601 34.01 50.8701 35.7C52.3801 37.39 54.1601 38.71 56.2201 39.66C58.2701 40.61 60.5101 41.08 62.9201 41.08C65.3301 41.08 67.5401 40.61 69.6501 39.66C71.7601 38.71 73.6201 37.4 75.2101 35.7C76.8001 34.01 78.0601 31.9899 78.9801 29.6299C79.9101 27.2699 80.3701 24.69 80.3701 21.87C80.3701 19.05 79.9101 16.46 78.9801 14.11C78.0501 11.75 76.8001 9.72992 75.2101 8.03992C73.6201 6.34992 71.7701 5.02996 69.6501 4.07996C67.5401 3.12996 65.2901 2.65991 62.9201 2.65991C60.5501 2.65991 58.2701 3.12996 56.2201 4.07996C54.1701 5.02996 52.3901 6.33992 50.8701 8.03992C49.3601 9.72992 48.1701 11.75 47.3101 14.11C46.4401 16.47 46.0101 19.05 46.0101 21.87C46.0101 24.69 46.4401 27.2799 47.3101 29.6299Z" fill="black"/>
<path d="M103.99 0.72998V28.33C103.99 29.14 104.01 29.9399 104.05 30.7499C104.09 31.5599 104.23 32.35 104.47 33.14C104.71 33.93 105.07 34.72 105.56 35.53C106.04 36.34 106.75 37.14 107.67 37.95C108.84 39 110.08 39.7799 111.38 40.3099C112.69 40.8299 114.19 41.1 115.88 41.1C117.85 41.1 119.75 40.8199 121.56 40.2499C123.37 39.6899 125 38.62 126.45 37.05C127.26 36.16 127.87 35.28 128.29 34.39C128.71 33.5 129.02 32.61 129.23 31.7C129.43 30.79 129.55 29.89 129.59 28.98C129.63 28.07 129.65 27.1799 129.65 26.2899V0.73999H132.31V28.2799C132.31 30.4099 131.97 32.42 131.28 34.29C130.59 36.16 129.58 37.8 128.23 39.21C126.88 40.62 125.21 41.73 123.22 42.53C121.23 43.34 118.94 43.74 116.37 43.74C112.26 43.74 109.02 43.17 106.65 42.02C104.27 40.87 102.48 39.44 101.27 37.73C100.06 36.02 99.3 34.17 98.98 32.17C98.66 30.18 98.5 28.36 98.5 26.7V0.72998H104H103.99Z" fill="black"/>
<path d="M185.59 0.72998V43.73H185.29L151.77 10.6899H151.53V42.9999H148.75V0H149.05L182.57 33.04H182.81V0.72998H185.59Z" fill="black"/>
<path d="M205.04 43.0099V0.72998H218.93C222.27 0.72998 225.33 1.25996 228.11 2.32996C230.89 3.39996 233.27 4.86999 235.27 6.73999C237.26 8.60999 238.81 10.8399 239.92 13.4099C241.03 15.9899 241.58 18.77 241.58 21.74C241.58 24.71 241.01 27.69 239.86 30.29C238.71 32.89 237.14 35.13 235.15 37.02C233.16 38.91 230.83 40.38 228.17 41.43C225.51 42.48 222.67 42.9999 219.65 42.9999H205.03L205.04 43.0099ZM210.53 40.35H217.16C220.45 40.35 223.25 39.7999 225.56 38.6899C227.87 37.5799 229.77 36.14 231.25 34.37C232.74 32.6 233.82 30.62 234.5 28.42C235.18 26.23 235.52 24.04 235.52 21.87C235.52 19.45 235.12 17.13 234.31 14.89C233.51 12.66 232.33 10.68 230.79 8.96997C229.24 7.25997 227.33 5.90001 225.04 4.89001C222.75 3.88001 220.12 3.38 217.15 3.38H210.52V40.34L210.53 40.35Z" fill="black"/>
<path d="M257.64 30.5699L252.32 43.0099H249.54L267.42 0.72998H270.44L290.13 43.0099H284.27L278.47 30.5699H257.63H257.64ZM267.73 7.48999H267.49L258.79 27.84H277.21L267.73 7.48999Z" fill="black"/>
<path d="M306.44 43.0099V4.04993H290.25V0.72998H328.12V4.04993H311.93V43.0099H306.43H306.44Z" fill="black"/>
<path d="M348.84 0.72998V43.0099H343.34V0.72998H348.84Z" fill="black"/>
<path d="M367.17 14.5599C368.04 11.9799 369.39 9.61996 371.25 7.45996C373.1 5.30996 375.46 3.51999 378.32 2.10999C381.18 0.699985 384.6 0 388.59 0C392.58 0 396.11 0.720015 399.07 2.14001C402.03 3.57001 404.48 5.36993 406.41 7.54993C408.34 9.72993 409.77 12.09 410.7 14.65C411.63 17.21 412.09 19.61 412.09 21.87C412.09 23.36 411.88 24.93 411.46 26.58C411.04 28.23 410.41 29.8699 409.59 31.4999C408.76 33.1299 407.71 34.68 406.42 36.15C405.13 37.62 403.61 38.92 401.86 40.05C400.11 41.18 398.14 42.07 395.94 42.74C393.74 43.4 391.3 43.74 388.6 43.74C384.61 43.74 381.19 43.02 378.33 41.6C375.47 40.18 373.12 38.3699 371.26 36.1899C369.41 34.0199 368.05 31.65 367.18 29.09C366.31 26.53 365.88 24.13 365.88 21.87C365.88 19.61 366.31 17.1399 367.18 14.5599H367.17ZM373.09 29.6299C373.96 31.9899 375.14 34.01 376.65 35.7C378.16 37.39 379.94 38.71 381.99 39.66C384.04 40.61 386.28 41.08 388.69 41.08C391.1 41.08 393.31 40.61 395.42 39.66C397.53 38.71 399.38 37.4 400.98 35.7C402.57 34.01 403.83 31.9899 404.75 29.6299C405.68 27.2699 406.14 24.69 406.14 21.87C406.14 19.05 405.68 16.46 404.75 14.11C403.82 11.75 402.57 9.72992 400.98 8.03992C399.39 6.34992 397.54 5.02996 395.42 4.07996C393.31 3.12996 391.06 2.65991 388.69 2.65991C386.32 2.65991 384.04 3.12996 381.99 4.07996C379.94 5.02996 378.16 6.33992 376.65 8.03992C375.14 9.72992 373.95 11.75 373.09 14.11C372.22 16.47 371.79 19.05 371.79 21.87C371.79 24.69 372.22 27.2799 373.09 29.6299Z" fill="black"/>
<path d="M463.53 0.72998V43.73H463.23L429.71 10.6899H429.47V42.9999H426.69V0H426.99L460.51 33.04H460.75V0.72998H463.53Z" fill="black"/>
<path d="M219.44 73.4399C219.44 76.4799 217.04 78.47 212.07 78.47C210.33 78.47 208.16 78.1699 207.27 77.8099V62.24H213.11C216.38 62.24 217.97 63.85 217.97 66.15C217.97 67.55 217.12 68.83 215.91 69.36C217.89 69.81 219.44 71.3099 219.44 73.4399ZM213.09 63.84H208.97V68.89H213.45C215.28 68.89 216.23 67.74 216.23 66.34C216.23 64.94 215.38 63.83 213.09 63.83V63.84ZM217.68 73.42C217.68 71.76 216.36 70.3799 213.96 70.3799H208.97V76.4999C209.69 76.7499 211.12 76.8799 212.24 76.8799C216.25 76.8799 217.68 75.37 217.68 73.42Z" fill="black"/>
<path d="M222.81 71.42V62.24H224.53V71.48C224.53 74.73 226.46 76.85 229.61 76.85C232.76 76.85 234.69 74.73 234.69 71.48V62.24H236.43V71.42C236.43 75.82 233.75 78.47 229.61 78.47C225.47 78.47 222.81 75.82 222.81 71.42Z" fill="black"/>
<path d="M240.26 77.54V75.86C241 76.39 242.3 76.9 243.76 76.9C246.39 76.9 247.69 75.54 247.69 73.95C247.69 72.68 246.9 71.68 245.38 70.89L243.45 69.91C241.69 69.02 240.52 67.87 240.52 66.11C240.52 63.75 242.64 62.0099 245.96 62.0099C247.15 62.0099 248.3 62.31 248.81 62.6V64.2599C248.22 63.9199 247.07 63.58 245.99 63.58C243.7 63.58 242.34 64.64 242.34 66.11C242.34 67.21 243.08 67.89 244.36 68.55L246.29 69.53C248.35 70.55 249.43 71.9699 249.43 73.8799C249.43 76.3399 247.6 78.47 243.84 78.47C242.4 78.47 241.04 78.05 240.27 77.54H240.26Z" fill="black"/>
<path d="M253.17 62.2499H254.89V78.18H253.17V62.2499Z" fill="black"/>
<path d="M273.39 62.2499V78.27H273.03L261.56 65.91V78.1899H259.84V62.15H260.18L271.67 74.45V62.2599H273.39V62.2499Z" fill="black"/>
<path d="M288.36 76.5599V78.17H278.19V62.24H288.11V63.85H279.85V68.84H287.67V70.43H279.85V76.55H288.37L288.36 76.5599Z" fill="black"/>
<path d="M291.24 77.54V75.86C291.98 76.39 293.28 76.9 294.74 76.9C297.37 76.9 298.67 75.54 298.67 73.95C298.67 72.68 297.88 71.68 296.35 70.89L294.42 69.91C292.66 69.02 291.49 67.87 291.49 66.11C291.49 63.75 293.61 62.0099 296.93 62.0099C298.12 62.0099 299.27 62.31 299.78 62.6V64.2599C299.19 63.9199 298.04 63.58 296.95 63.58C294.66 63.58 293.3 64.64 293.3 66.11C293.3 67.21 294.04 67.89 295.32 68.55L297.25 69.53C299.31 70.55 300.39 71.9699 300.39 73.8799C300.39 76.3399 298.56 78.47 294.8 78.47C293.36 78.47 292 78.05 291.23 77.54H291.24Z" fill="black"/>
<path d="M303.11 77.54V75.86C303.85 76.39 305.15 76.9 306.61 76.9C309.24 76.9 310.54 75.54 310.54 73.95C310.54 72.68 309.75 71.68 308.22 70.89L306.29 69.91C304.53 69.02 303.36 67.87 303.36 66.11C303.36 63.75 305.48 62.0099 308.8 62.0099C309.99 62.0099 311.14 62.31 311.65 62.6V64.2599C311.06 63.9199 309.91 63.58 308.82 63.58C306.53 63.58 305.17 64.64 305.17 66.11C305.17 67.21 305.91 67.89 307.19 68.55L309.12 69.53C311.18 70.55 312.26 71.9699 312.26 73.8799C312.26 76.3399 310.43 78.47 306.67 78.47C305.23 78.47 303.87 78.05 303.1 77.54H303.11Z" fill="black"/>
<path d="M333.46 77.78C332.48 78.29 331.31 78.48 330.08 78.48C325.41 78.48 321.77 74.91 321.77 70.22C321.77 65.53 325.4 62.02 330.1 62.02C331.33 62.02 332.48 62.23 333.46 62.7V64.4C332.48 63.89 331.4 63.66 330.13 63.66C326.39 63.66 323.55 66.49 323.55 70.22C323.55 73.95 326.4 76.85 330.13 76.85C331.4 76.85 332.49 76.62 333.46 76.11V77.79V77.78Z" fill="black"/>
<path d="M335.81 70.21C335.81 65.6 339.38 62.0099 344.05 62.0099C348.72 62.0099 352.31 65.6 352.31 70.21C352.31 74.82 348.76 78.47 344.05 78.47C339.34 78.47 335.81 74.86 335.81 70.21ZM350.57 70.21C350.57 66.49 347.75 63.6 344.05 63.6C340.35 63.6 337.57 66.49 337.57 70.21C337.57 73.93 340.35 76.86 344.05 76.86C347.75 76.86 350.57 73.95 350.57 70.21Z" fill="black"/>
<path d="M369.55 62.2499V78.27H369.19L357.72 65.91V78.1899H356V62.15H356.34L367.83 74.45V62.2599H369.55V62.2499Z" fill="black"/>
<path d="M373.58 77.54V75.86C374.32 76.39 375.62 76.9 377.08 76.9C379.71 76.9 381.01 75.54 381.01 73.95C381.01 72.68 380.22 71.68 378.7 70.89L376.77 69.91C375.01 69.02 373.84 67.87 373.84 66.11C373.84 63.75 375.96 62.0099 379.28 62.0099C380.47 62.0099 381.62 62.31 382.13 62.6V64.2599C381.54 63.9199 380.39 63.58 379.31 63.58C377.02 63.58 375.66 64.64 375.66 66.11C375.66 67.21 376.4 67.89 377.68 68.55L379.61 69.53C381.67 70.55 382.75 71.9699 382.75 73.8799C382.75 76.3399 380.92 78.47 377.16 78.47C375.72 78.47 374.36 78.05 373.59 77.54H373.58Z" fill="black"/>
<path d="M386.15 71.42V62.24H387.87V71.48C387.87 74.73 389.8 76.85 392.95 76.85C396.1 76.85 398.03 74.73 398.03 71.48V62.24H399.77V71.42C399.77 75.82 397.09 78.47 392.95 78.47C388.81 78.47 386.15 75.82 386.15 71.42Z" fill="black"/>
<path d="M412.29 76.5599V78.17H404.37V62.24H406.11V76.5599H412.29Z" fill="black"/>
<path d="M416.6 63.86H412.25V62.2499H422.7V63.86H418.35V78.18H416.61V63.86H416.6Z" fill="black"/>
<path d="M426.16 62.2499H427.88V78.18H426.16V62.2499Z" fill="black"/>
<path d="M446.37 62.2499V78.27H446.01L434.54 65.91V78.1899H432.82V62.15H433.16L444.65 74.45V62.2599H446.37V62.2499Z" fill="black"/>
<path d="M451.83 70.53C451.83 74.25 454.48 76.84 458.75 76.84C459.81 76.84 460.85 76.59 461.55 76.33V70.21H463.25V77.35C462.63 77.8 460.76 78.48 458.66 78.48C453.43 78.48 450.06 75.12 450.06 70.54C450.06 65.61 453.71 62.02 459.26 62.02C460.98 62.02 462.57 62.42 463.53 62.93V64.59C462.49 64.08 460.94 63.61 459.35 63.61C454.74 63.61 451.83 66.43 451.83 70.53Z" fill="black"/>
</svg>
