<svg width="220" height="89" viewBox="0 0 220 89" fill="none" xmlns="http://www.w3.org/2000/svg">
<path d="M61.74 1.45999V8.22H11.18V39.05H49.25L0 87.44V1.45999H61.74Z" fill="#FF6500"/>
<path d="M72.7998 1.45999H103.57C107.84 1.45999 111.55 2.09999 114.71 3.35999C117.87 4.62999 120.45 6.24999 122.47 8.20999C124.48 10.18 125.98 12.35 126.96 14.72C127.94 17.1 128.44 19.43 128.44 21.72C128.44 24.34 127.87 26.82 126.72 29.15C125.57 31.48 124.04 33.53 122.11 35.29C120.19 37.05 117.95 38.48 115.42 39.59C112.88 40.7 110.18 41.25 107.31 41.25V41.74C109.11 41.82 111.49 42.11 114.43 42.6C117.38 43.09 120.24 44.07 123.03 45.55C125.81 47.03 128.23 49.16 130.28 51.94C132.33 54.73 133.35 58.45 133.35 63.12C133.35 66.07 132.83 69 131.81 71.9C130.78 74.81 129.12 77.41 126.82 79.7C124.52 81.99 121.47 83.86 117.69 85.29C113.91 86.72 109.26 87.44 103.75 87.44H72.7998V1.45999ZM98.7198 39.05C101.17 39.05 103.49 38.64 105.66 37.82C107.83 37 109.75 35.85 111.43 34.38C113.11 32.91 114.42 31.15 115.36 29.1C116.3 27.05 116.77 24.84 116.77 22.47C116.77 20.59 116.44 18.71 115.79 16.82C115.14 14.94 114.09 13.26 112.66 11.78C111.23 10.31 109.38 9.12 107.13 8.22C104.88 7.32 102.16 6.87 98.9598 6.87H83.9798V39.05H98.7198ZM101.85 82.04C104.48 82.04 106.97 81.65 109.31 80.87C111.65 80.09 113.68 78.92 115.41 77.37C117.13 75.82 118.51 73.93 119.54 71.72C120.57 69.51 121.08 66.97 121.08 64.1C121.08 61.48 120.61 58.98 119.66 56.61C118.71 54.24 117.28 52.15 115.35 50.35C113.42 48.55 110.98 47.12 108.02 46.05C105.06 44.99 101.57 44.45 97.5498 44.45H83.9998V82.03H101.87L101.85 82.04Z" fill="#FF6500"/>
<path d="M215.38 71.6C207.03 79.46 197.12 83.39 185.66 83.39C179.27 83.39 173.62 82.28 168.71 80.07C163.8 77.86 159.7 74.91 156.43 71.23C153.15 67.54 150.68 63.29 149 58.46C147.32 53.63 146.48 48.59 146.48 43.35C146.48 37.78 147.36 32.69 149.12 28.06C150.88 23.44 153.36 19.44 156.55 16.08C159.74 12.72 163.53 10.1 167.91 8.22C172.29 6.34 177.06 5.39999 182.22 5.39999C185.74 5.39999 188.95 5.81 191.86 6.63C194.77 7.45 197.35 8.52001 199.6 9.82001C201.85 11.13 203.69 12.63 205.13 14.3C206.56 15.98 207.57 17.68 208.14 19.4H217.23C216 16.62 214.42 14.04 212.5 11.66C210.58 9.29 208.18 7.23999 205.31 5.51999C202.44 3.79999 199.09 2.45 195.24 1.47C191.39 0.490001 187.01 0 182.1 0C174.98 0 168.49 1.02001 162.63 3.07001C156.77 5.12001 151.76 8.05001 147.59 11.85C143.41 15.66 140.18 20.24 137.89 25.61C135.6 30.97 134.45 36.97 134.45 43.6C134.45 44.46 134.48 45.32 134.52 46.17C136.86 47.6 138.92 49.53 140.7 51.95C142.75 54.74 143.77 58.46 143.77 63.13C143.77 65.73 143.35 68.31 142.55 70.87C143.53 72.25 144.59 73.59 145.75 74.86C149.6 79.08 154.51 82.48 160.49 85.05C166.47 87.63 173.59 88.92 181.86 88.92C187.1 88.92 191.79 88.43 195.92 87.45C200.05 86.47 203.66 85.26 206.73 83.83C209.8 82.4 212.36 80.86 214.41 79.22C216.46 77.58 218.01 76.15 219.08 74.92L215.4 71.6H215.38Z" fill="#FF6500"/>
</svg>
